PathFileType	4	(X/Y/Z)	Kaydara	
DataRate	CameraRate	NumFrames	NumMarkers	Units	OrigDataRate	OrigDataStartFrame	OrigNumFrames	
240.00	240.00	4	72	mm	240.00	89	355	
Frame#	Time	Hips			RightUpLeg			RightLeg			RightFoot			RightFoot_End			LeftUpLeg			LeftLeg			LeftFoot			LeftFoot_End			Spine			Spine1			Spine2			Spine3			Neck			Head			Head_End			RightShoulder			RightArm			RightForeArm			RightHand			RightHandThumb1			RightHandThumb2			RightHandThumb3			RightHandThumb3_End			RightInHandIndex			RightHandIndex1			RightHandIndex2			RightHandIndex3			RightHandIndex3_End			RightInHandMiddle			RightHandMiddle1			RightHandMiddle2			RightHandMiddle3			RightHandMiddle3_End			RightInHandRing			RightHandRing1			RightHandRing2			RightHandRing3			RightHandRing3_End			RightInHandPinky			RightHandPinky1			RightHandPinky2			RightHandPinky3			RightHandPinky3_End			LeftShoulder			LeftArm			LeftForeArm			LeftHand			LeftHandThumb1			LeftHandThumb2			LeftHandThumb3			LeftHandThumb3_End			LeftInHandIndex			LeftHandIndex1			LeftHandIndex2			LeftHandIndex3			LeftHandIndex3_End			LeftInHandMiddle			LeftHandMiddle1			LeftHandMiddle2			LeftHandMiddle3			LeftHandMiddle3_End			LeftInHandRing			LeftHandRing1			LeftHandRing2			LeftHandRing3			LeftHandRing3_End			LeftInHandPinky			LeftHandPinky1			LeftHandPinky2			LeftHandPinky3			LeftHandPinky3_End			
		X1	Y1	Z1	X2	Y2	Z2	X3	Y3	Z3	X4	Y4	Z4	X5	Y5	Z5	X6	Y6	Z6	X7	Y7	Z7	X8	Y8	Z8	X9	Y9	Z9	X10	Y10	Z10	X11	Y11	Z11	X12	Y12	Z12	X13	Y13	Z13	X14	Y14	Z14	X15	Y15	Z15	X16	Y16	Z16	X17	Y17	Z17	X18	Y18	Z18	X19	Y19	Z19	X20	Y20	Z20	X21	Y21	Z21	X22	Y22	Z22	X23	Y23	Z23	X24	Y24	Z24	X25	Y25	Z25	X26	Y26	Z26	X27	Y27	Z27	X28	Y28	Z28	X29	Y29	Z29	X30	Y30	Z30	X31	Y31	Z31	X32	Y32	Z32	X33	Y33	Z33	X34	Y34	Z34	X35	Y35	Z35	X36	Y36	Z36	X37	Y37	Z37	X38	Y38	Z38	X39	Y39	Z39	X40	Y40	Z40	X41	Y41	Z41	X42	Y42	Z42	X43	Y43	Z43	X44	Y44	Z44	X45	Y45	Z45	X46	Y46	Z46	X47	Y47	Z47	X48	Y48	Z48	X49	Y49	Z49	X50	Y50	Z50	X51	Y51	Z51	X52	Y52	Z52	X53	Y53	Z53	X54	Y54	Z54	X55	Y55	Z55	X56	Y56	Z56	X57	Y57	Z57	X58	Y58	Z58	X59	Y59	Z59	X60	Y60	Z60	X61	Y61	Z61	X62	Y62	Z62	X63	Y63	Z63	X64	Y64	Z64	X65	Y65	Z65	X66	Y66	Z66	X67	Y67	Z67	X68	Y68	Z68	X69	Y69	Z69	X70	Y70	Z70	X71	Y71	Z71	X72	Y72	Z72	

89	0.367	2921.0129	906.651	56.2195	2998.4957483678245	891.4917252385926	2.3510093992006498	2918.2290458123775	490.10961237674604	-85.86055358612442	2905.402190463726	106.55094934515215	-160.18375648727667	2830.464561719176	30.991841960015893	-1.401209117379028	2852.4211125602837	893.3439946044186	121.64989967799393	2788.32406929427	490.0758726249832	215.5308043884913	2746.460789871147	58.67415385856044	296.33568398685435	2613.3892969351705	-15.926694992960767	180.91890225405322	2878.8371006069906	1033.7083015318688	5.8332610446621125	2830.1185037023233	1100.350079385596	-44.89207273871151	2774.7567173158864	1163.9704740044522	-100.28422828852028	2715.2951690217683	1215.1068149797056	-157.49031009336602	2651.3071041226176	1269.9664528566984	-217.92705503213764	2591.776968283845	1319.7484347832185	-272.09190542376354	2473.4893589595745	1414.0283402084551	-323.23194941322487	2695.1024129607804	1253.4184845455839	-219.5317473304768	2755.1993206765105	1245.213643058458	-331.3552152467847	2764.964224616075	975.4399567196168	-324.0137192728485	2815.032069578398	755.7240924657211	-396.73523993616345	2818.8230666497298	742.5869685344782	-409.8136786620099	2808.5379195996793	732.7318244299403	-422.2938862504633	2801.884597541061	724.071451223521	-429.9245921358261	2796.7736631926946	715.3141769620378	-435.3787401893678	2822.691599925177	733.7169669213193	-407.13130719141947	2828.9441424472825	698.7103049878925	-419.4353776331245	2824.240418819137	680.8766842748279	-428.42854543481315	2815.4458688559093	677.5529253370979	-434.165167376607	2804.2069537901157	680.038517719987	-439.01155737958806	2823.4286738933256	730.3574433573815	-403.8391042118148	2829.9284815306714	694.3939663545933	-414.0592446461696	2824.861446917344	674.6123540689764	-423.3988086546791	2814.28263746553	670.4480724731517	-430.09248041013234	2802.000535349178	673.0927565328208	-435.28478679810684	2823.886374943493	728.792254499	-401.190324660414	2830.391203034749	694.9544293387648	-408.0243564330193	2826.0305621403877	677.4416312510068	-415.66450839982946	2815.8560815595793	673.2809201287791	-421.8554230974068	2804.3218458103483	675.6993922112805	-426.611607959893	2823.472441066879	728.6720359596859	-397.850777590852	2829.5093204614545	697.2655608083046	-402.03434734544317	2826.0754616540917	682.9672530226875	-407.3421068304583	2818.682199779314	679.7995276308965	-411.46587530726697	2808.4808821215556	681.8654251384389	-415.4535287316463	2649.3467995318038	1250.6597239991743	-174.6664253971524	2584.8315704631914	1190.7886341950707	-79.62955901183209	2692.2243326017433	1004.0183128630168	-204.97141124247267	2834.9557464702652	825.5692616513335	-326.402352231064	2820.049460279342	817.7321018053435	-346.38814589082784	2813.7199832026977	798.1749962605297	-379.5442845464608	2809.6544624452613	782.5374910249354	-402.6274694007306	2806.5580706380856	767.7748942468546	-421.86514560329204	2818.8803645602543	810.1127385712157	-347.21021060346715	2800.0374268131427	777.5615579648783	-383.26261726014394	2792.419080497979	753.1281095073699	-413.6257660690966	2791.88197712849	741.1298694821829	-432.60551705211066	2794.2699233618573	733.3520547456944	-448.38452126980275	2820.7284563182675	805.6726002016852	-346.18769925247875	2803.3476855484137	771.5219966300425	-380.797553253694	2795.3463897592287	744.3777366043454	-413.68451728267655	2794.8480451848736	729.6707712185352	-436.46518575960613	2797.5336411356648	721.0478816514922	-453.67305853985977	2822.4576701314645	803.3647143895357	-344.49887391444645	2808.214459728846	770.7509047185348	-373.91435897506267	2801.587251187334	746.6525326689093	-402.27403694279764	2801.290712821902	732.23319948938	-424.08597578519164	2803.903125423595	724.0149567961511	-440.1890220938712	2825.4479931856704	801.6602710367342	-341.87364421526655	2814.0293616898507	770.6804705284981	-367.0907776038568	2809.326050102871	750.8402170758204	-389.1968167012735	2809.401690045863	740.0599448367462	-404.81468014214727	2811.883876898134	732.6287014067259	-418.91139597675584
90	0.371	2921.0129	906.651	56.2195	2998.268410159938	891.3765553999001	2.2757006918673426	2917.8710756957294	489.94108603607225	-85.55435938148115	2905.4060469142505	106.48227615455056	-160.06467241607552	2830.469792231429	30.904278600982863	-1.2909147910090102	2852.635454559506	893.457590546265	121.73062400816661	2788.5853119319813	490.20089034370756	215.68050841068307	2746.5324904823933	58.79107903773567	296.2794197935802	2613.5113047882664	-15.870099543650527	180.85138973090645	2878.900826028933	1033.7191236706165	5.812606662637913	2830.1602266650257	1100.3584924181744	-44.89080417323553	2774.796347376248	1164.012347526078	-100.23941231700188	2715.3081920539507	1215.1766678498325	-157.38282739553432	2651.2909990748694	1270.0626414913877	-217.75363449790532	2591.7350360701025	1319.8681254384837	-271.8570639046835	2473.3984851554237	1414.098966103464	-322.96035618523314	2695.0119776480246	1253.4329502429996	-219.39122115126347	2755.011901650395	1245.2931805811002	-331.12724128958934	2764.9114487376537	975.7254826416266	-324.1037405200873	2815.281095480105	756.7331761734569	-396.9023824678608	2819.191483079091	743.7377548560019	-410.0215299840969	2808.9429159578453	733.8787230333252	-422.52425959968264	2802.304034013094	725.2111847130365	-430.1700267674953	2797.195697535	716.4441243852864	-435.63619736526414	2823.038118887287	734.8806881528627	-407.3430446551491	2829.369681658335	700.0249011229008	-419.70262998182153	2824.68512351671	682.2112743651425	-428.7216937691924	2815.885681271927	678.8452133227319	-434.46362446257797	2804.631380453901	681.2588731822303	-439.30713010502154	2823.740726052397	731.4997495657531	-404.0466088738575	2830.2989752166027	695.6718721124086	-414.3186111173694	2825.248004640534	675.9086562269999	-423.6856792042676	2814.660966077406	671.6916964441926	-430.3853934522243	2802.360898556662	674.2568749114216	-435.57436765658724	2824.172367792269	729.9164449874393	-401.3935587724686	2830.7078478188337	696.1869452849631	-408.2707608131866	2826.3561570390725	678.6864619651055	-415.93403024071716	2816.171056913393	674.4729629235371	-422.13032046657605	2804.618656556807	676.8157431978836	-426.8831568006865	2823.723688228513	729.7641695191243	-398.04640768659266	2829.768317850582	698.4402353445855	-402.26535981139676	2826.3336088687447	684.1455057339964	-407.5901096547654	2818.9287226403835	680.9362376245969	-411.7170626488825	2808.7090820203125	682.9333357812078	-415.7013260277825	2649.429660762506	1250.8226052291573	-174.50622513646232	2585.0428301529987	1191.1734778555694	-79.49526313888641	2692.198713097671	1004.3084206182185	-204.65255598025712	2835.3005202020213	826.6793979643978	-325.441330967716	2820.1441345805683	819.0894036074353	-345.40184067109635	2813.601646957533	799.9855305829502	-378.67115751387746	2809.4292609704676	784.6679081683178	-401.8614582718585	2806.2792616262327	770.1756198043885	-421.21264134094196	2819.1072963708993	811.4928759993775	-346.31853767439713	2800.209831686022	779.4354324126574	-382.6013461399826	2792.5186822724436	755.4261349380093	-413.14882348798	2791.887628505391	743.6940323725892	-432.21541025555894	2794.1649705351824	736.1381474605732	-448.0475628777384	2821.0684358516055	807.0509455480973	-345.3661152977387	2803.6956383336505	773.3809260315206	-380.23860020892585	2795.6299484743695	746.6977612451212	-413.33523461075447	2795.0254784644753	732.3110475414167	-436.2247607936937	2797.5935648573627	723.9305841566774	-453.49277748596745	2822.8795233324054	804.7285028224782	-343.72091502730296	2808.716327768703	772.5307305549115	-373.40960316835105	2802.0483568900754	748.8317253216703	-401.9603358305723	2801.657610281365	734.7199586178994	-423.88168716983716	2804.1633990249857	726.7290216905993	-440.0433732358125	2825.960951441363	802.9984275068581	-341.1393916563307	2814.6739180599525	772.3822498558751	-366.6340812644586	2809.961580210079	752.8560453053412	-388.9048768835624	2809.9799271148245	742.2973322458115	-404.60823756421144	2812.3742370898854	735.065844841381	-418.760174880372
91	0.375	2921.0129	906.651	56.2195	2998.0114413461542	891.2410095458898	2.17258248505272	2917.4628861337387	489.77044291152345	-85.34926991758056	2905.387491239637	106.41296254692274	-160.05543746745045	2830.4513568846496	30.815313887827962	-1.2914226952316128	2852.8808224349364	893.5927079278567	121.84098873703235	2788.8725782144425	490.34991359109034	215.86685232092222	2746.631809292136	58.93148766503881	296.257950221845	2613.6614164266807	-15.791133473657123	180.81894267282811	2878.9589890423536	1033.7254097842872	5.784799538079727	2830.1938044486246	1100.36158582264	-44.8955209760006	2774.8266138252384	1164.0484753941616	-100.19965663555772	2715.318557746449	1215.246889716107	-157.2817566859957	2651.279047708781	1270.1654376141792	-217.58806033619638	2591.702763466903	1319.9995074094568	-271.6314181944692	2473.3150966739345	1414.1735111667967	-322.70716907326073	2694.930120878096	1253.4616439923825	-219.25313664833365	2754.8317826165903	1245.4023102810022	-330.8894370488505	2764.8482691758445	976.0465764325521	-324.17487177226064	2815.46084162275	757.7615656205155	-397.03442012668245	2819.496086576688	744.9057489631342	-410.19312445836573	2809.282353811805	735.0342135315817	-422.7254326906271	2802.6538032389367	726.3535395976431	-430.39066140332125	2797.5421644752137	717.5717410444254	-435.8720831197788	2823.3107561253023	736.0621710659658	-407.51553021265636	2829.704441135438	701.3522346305949	-419.92692161884753	2825.0283567242877	683.5516842314968	-428.97489384923614	2816.2216288937316	680.1375089248535	-434.7277827372805	2804.9528310823325	682.4734051766326	-439.5756275754626	2823.9716668647034	732.6599100022042	-404.2138587315984	2830.5679648910573	696.962782631045	-414.5335613282624	2825.5204939495484	677.2104391051944	-423.9313074514018	2814.921908121946	672.9338003802517	-430.64382574732076	2802.6046380191096	675.4130988710999	-435.8373451694547	2824.372539722787	731.0587174246285	-401.5558632324756	2830.9162106435965	697.4334939267916	-408.4717424267669	2826.5616336392204	679.9387994930355	-416.16078702124463	2816.362243298362	675.6657765797041	-422.36891712955685	2804.792172731159	677.9268794978283	-427.1257842963709	2823.884436907504	730.8745255135597	-398.2009176059061	2829.9132153020987	699.6296172810196	-402.4508078876086	2826.4668952110815	685.333307792391	-407.79452713945096	2819.047086892911	682.0776163464702	-411.9293074105092	2808.8092042154044	684.0006316041793	-415.9166762234176	2649.507206612988	1250.979836811697	-174.35823716065872	2585.2548159564863	1191.5410769003013	-79.38322986743385	2692.3050530178357	1004.6911748742982	-204.39974580613153	2835.929110396066	828.0032530917313	-324.5137726262193	2820.5742092840574	820.7546750101681	-344.50380887580735	2813.897570828939	802.1478344269505	-377.87171919123836	2809.667038995767	787.1713300108257	-401.15364824088493	2806.4987447266626	772.959125175955	-420.60086644947205	2819.648061081214	813.1599755363558	-345.50725833885645	2800.7366248467606	781.6583917755678	-382.0455635437407	2793.022689028706	758.0974323403601	-412.7617118741143	2792.3426453718894	746.6387794304655	-431.88961506036367	2794.555949247346	739.3056657220841	-447.7431461039876	2821.7050134998153	808.6879805769438	-344.60797839661507	2804.370417294199	775.5438505126114	-379.758414155429	2796.2925330533717	749.3442181152387	-413.0452744730665	2795.635039534043	735.2846797401074	-436.0117382897415	2798.136013507076	727.1466403386693	-453.30458634048375	2823.584509635936	806.3295662681035	-342.99409653540124	2809.5159883727983	774.5702694851436	-372.95993103241864	2802.8502767035966	751.2860712186075	-401.6823320844109	2802.4152281285246	737.4863631358479	-423.68101131530244	2804.861156012831	729.7216941414541	-439.86752097067495	2826.742347756571	804.54623420636	-340.43895426694195	2815.5904601681136	774.2977359516024	-366.2051721631907	2810.899621529608	755.091423502759	-388.6213767587515	2810.89517879994	744.7543920101411	-404.3849824644111	2813.241943699696	737.7199260367047	-418.56112087959895
92	0.379	2921.0129	906.651	56.2195	2997.7304978377197	891.0894882071756	2.047061215561088	2917.0173416341495	489.59917602448775	-85.23118862025201	2905.3558110540234	106.344167626449	-160.1398049543277	2830.418751767844	30.72621751070532	-1.3863360103226254	2853.151309673745	893.7446610535661	121.97506140339614	2789.1813342245337	490.51745997713687	216.08146213954132	2746.7549108608664	59.09034304069404	296.26509454835576	2613.8354951066285	-15.694136974587611	180.81528466956183	2879.0125827792126	1033.7283103410493	5.751987318396702	2830.2212816731035	1100.3614415608022	-44.90391261467154	2774.849446546257	1164.0807621325248	-100.16277570777567	2715.326902370172	1215.3181862023766	-157.18470380878844	2651.270563488722	1270.2743219084198	-217.42770826277783	2591.6783653154844	1320.1410427875244	-271.41211486813455	2473.2384548615964	1414.2524087904008	-322.46826596621526	2694.8553952880493	1253.50292877152	-219.11570977066285	2754.6570683402297	1245.5344006416788	-330.64120036163	2764.7713718753057	976.3985675743855	-324.21574876651306	2815.5596046439896	758.8022863859583	-397.12481003250497	2819.7222471494806	746.0844654858429	-410.3215898874529	2809.5419800898794	736.1937330627188	-422.88885816889024	2802.9204541797712	727.4951059521702	-430.5769354829748	2797.8007431525302	718.6944191482679	-436.0761234459865	2823.4963488859767	737.2541040242169	-407.6425982759776	2829.9358879815322	702.6846760145798	-420.1024223406188	2825.2590832890187	684.8911570749302	-429.1815497917062	2816.443700885938	681.424374297287	-434.9498709217037	2805.162205414071	683.678291406798	-439.8078338733237	2824.1098294726894	733.8301705000549	-404.3350461923718	2830.7252068784983	698.2583940392919	-414.69880873482765	2825.6705021227363	678.5102950795039	-424.1296162012397	2815.0583810268326	674.1685411032493	-430.8603035645162	2802.725713406392	676.5573398508867	-436.064675387077	2824.476257523132	732.211000686832	-401.67168603398505	2831.007810278746	698.6852001656615	-408.6224708317224	2826.6403054250377	681.1904936583089	-416.3393041648784	2816.4243428137993	676.852690131224	-422.5644153068209	2804.8381264891586	679.0277657936014	-427.331227591807	2823.945282944057	731.9947743509599	-398.3089518274269	2829.93731651038	700.8244385842992	-402.5861568020919	2826.4703624449367	686.5218874902769	-407.9503755353129	2819.033492683382	683.2159303312634	-412.09669306915566	2808.778445073407	685.0610046584616	-416.09238357592744	2649.580477818099	1251.132907397258	-174.21916765062696	2585.469848613904	1191.894193291083	-79.28879034750328	2692.519780361654	1005.1543442502784	-204.20490302450173	2836.762901392641	829.48876119676	-323.6265629297297	2821.2576803116262	822.6551357119428	-343.69025958166077	2814.5169126239357	804.5708087269617	-377.1398885665188	2810.270949247574	789.9452629515088	-400.49648247923125	2807.1147945901416	776.0145833675434	-420.0211355879705	2820.421431203973	815.0441065385274	-344.7710165619717	2801.5307580385906	784.1388398196586	-381.57602932031705	2793.8370609717294	761.0360474236837	-412.44093515057637	2793.147356761101	749.8501958170116	-431.6059372865297	2795.3376611732933	742.7347572772111	-447.45281728274597	2822.5574319651296	810.5182691021073	-343.90899636223486	2805.2858428735744	777.9266328036738	-379.339734653881	2797.2404120794554	752.2179666734205	-412.792924529981	2796.5762402156956	738.4832418812268	-435.80606881081377	2799.0544689228223	730.5812826025996	-453.0925733254208	2824.4923821446196	808.1061940427004	-342.3151752899143	2810.5288651251694	776.7942770059179	-372.5512214891919	2803.9019391389334	753.9279573229421	-401.42224180877236	2803.4660237400794	740.4362197869342	-423.46788386170977	2805.8932060308794	732.8909963951893	-439.6493460883562	2827.7124582836273	806.2469233069245	-339.7711482575377	2816.6957133677315	776.3607790412027	-365.7939636241009	2812.051853050566	757.4714618424414	-388.33368370445686	2812.054478836075	747.3505390072305	-404.13372371370787	2814.3890705394388	740.505559813978	-418.30664542443486
